<?xml version="1.0" standalone="no"?>
<!DOCTYPE svg PUBLIC "-//W3C//DTD SVG 20010904//EN"
 "http://www.w3.org/TR/2001/REC-SVG-20010904/DTD/svg10.dtd">
<svg version="1.0" xmlns="http://www.w3.org/2000/svg"
 width="43.000000pt" height="49.000000pt" viewBox="0 0 43.000000 49.000000"
 preserveAspectRatio="xMidYMid meet">

<g transform="translate(0.000000,49.000000) scale(0.100000,-0.100000)"
fill="#15816A" stroke="none">
<path d="M134 465 c-17 -8 -46 -29 -64 -47 -119 -119 -56 -297 118 -333 29 -6
32 -10 32 -41 0 -19 3 -34 6 -34 13 0 94 62 122 95 115 130 91 301 -50 360
-45 18 -122 18 -164 0z m130 -105 c17 -6 26 -17 26 -31 l0 -22 23 21 c13 12
26 22 30 22 4 0 7 -35 7 -77 l0 -77 -30 29 -30 29 0 -26 c0 -14 -7 -29 -16
-32 -29 -11 -160 -6 -172 6 -7 7 -12 40 -12 80 0 53 4 69 18 77 22 13 123 14
156 1z"/>
</g>
</svg>
